<?xml version="1.0" encoding="UTF-8" ?>
<svg xmlns="http://www.w3.org/2000/svg" xmlns:xlink="http://www.w3.org/1999/xlink" width="298pt" height="1420pt" viewBox="0.00 0.00 298.46 1419.80">
<g id="graph0" class="graph" transform="scale(1 1) rotate(0) translate(4 1415.8)">
<title>HLS_Stream_Analyzer</title>
<polygon fill="#ffffff" stroke="transparent" points="-4,4 -4,-1415.8 294.4558,-1415.8 294.4558,4 -4,4"/>
<!-- Start -->
<g id="node1" class="node">
<title>Start</title>
<path fill="none" stroke="#000000" d="M105.3853,-1411.6019C105.3853,-1411.6019 36.9527,-1411.6019 36.9527,-1411.6019 30.9527,-1411.6019 24.9527,-1405.6019 24.9527,-1399.6019 24.9527,-1399.6019 24.9527,-1382.3981 24.9527,-1382.3981 24.9527,-1376.3981 30.9527,-1370.3981 36.9527,-1370.3981 36.9527,-1370.3981 105.3853,-1370.3981 105.3853,-1370.3981 111.3853,-1370.3981 117.3853,-1376.3981 117.3853,-1382.3981 117.3853,-1382.3981 117.3853,-1399.6019 117.3853,-1399.6019 117.3853,-1405.6019 111.3853,-1411.6019 105.3853,-1411.6019"/>
<text text-anchor="middle" x="71.169" y="-1395.2" font-family="Helvetica,sans-Serif" font-size="14.00" fill="#000000">User Input</text>
<text text-anchor="middle" x="71.169" y="-1378.4" font-family="Helvetica,sans-Serif" font-size="14.00" fill="#000000">Playlist URL</text>
</g>
<!-- Validate -->
<g id="node2" class="node">
<title>Validate</title>
<path fill="none" stroke="#000000" d="M114.8148,-1333.0019C114.8148,-1333.0019 27.5232,-1333.0019 27.5232,-1333.0019 21.5232,-1333.0019 15.5232,-1327.0019 15.5232,-1321.0019 15.5232,-1321.0019 15.5232,-1303.7981 15.5232,-1303.7981 15.5232,-1297.7981 21.5232,-1291.7981 27.5232,-1291.7981 27.5232,-1291.7981 114.8148,-1291.7981 114.8148,-1291.7981 120.8148,-1291.7981 126.8148,-1297.7981 126.8148,-1303.7981 126.8148,-1303.7981 126.8148,-1321.0019 126.8148,-1321.0019 126.8148,-1327.0019 120.8148,-1333.0019 114.8148,-1333.0019"/>
<text text-anchor="middle" x="71.169" y="-1316.6" font-family="Helvetica,sans-Serif" font-size="14.00" fill="#000000">Validate URL</text>
<text text-anchor="middle" x="71.169" y="-1299.8" font-family="Helvetica,sans-Serif" font-size="14.00" fill="#000000">(HTTP/HTTPS)</text>
</g>
<!-- Start&#45;&gt;Validate -->
<g id="edge1" class="edge">
<title>Start-&gt;Validate</title>
<path fill="none" stroke="#000000" d="M71.169,-1370.3488C71.169,-1362.1105 71.169,-1352.4489 71.169,-1343.402"/>
<polygon fill="#000000" stroke="#000000" points="74.6691,-1343.1862 71.169,-1333.1862 67.6691,-1343.1862 74.6691,-1343.1862"/>
</g>
<!-- Invalid -->
<g id="node3" class="node">
<title>Invalid</title>
<path fill="#f8d7da" stroke="#000000" d="M76.5076,-1238.6019C76.5076,-1238.6019 11.8304,-1238.6019 11.8304,-1238.6019 5.8304,-1238.6019 -.1696,-1232.6019 -.1696,-1226.6019 -.1696,-1226.6019 -.1696,-1209.3981 -.1696,-1209.3981 -.1696,-1203.3981 5.8304,-1197.3981 11.8304,-1197.3981 11.8304,-1197.3981 76.5076,-1197.3981 76.5076,-1197.3981 82.5076,-1197.3981 88.5076,-1203.3981 88.5076,-1209.3981 88.5076,-1209.3981 88.5076,-1226.6019 88.5076,-1226.6019 88.5076,-1232.6019 82.5076,-1238.6019 76.5076,-1238.6019"/>
<text text-anchor="middle" x="44.169" y="-1222.2" font-family="Helvetica,sans-Serif" font-size="14.00" fill="#000000">Invalid URL</text>
<text text-anchor="middle" x="44.169" y="-1205.4" font-family="Helvetica,sans-Serif" font-size="14.00" fill="#000000">Exit</text>
</g>
<!-- Validate&#45;&gt;Invalid -->
<g id="edge3" class="edge">
<title>Validate-&gt;Invalid</title>
<path fill="none" stroke="#000000" d="M65.1768,-1291.4496C61.5764,-1278.8613 56.9312,-1262.6205 52.9248,-1248.6128"/>
<polygon fill="#000000" stroke="#000000" points="56.2595,-1247.5438 50.1444,-1238.8919 49.5293,-1249.4688 56.2595,-1247.5438"/>
<text text-anchor="middle" x="79.6122" y="-1261" font-family="Times,serif" font-size="14.00" fill="#000000">invalid</text>
</g>
<!-- DownloadRoot -->
<g id="node4" class="node">
<title>DownloadRoot</title>
<path fill="none" stroke="#000000" d="M209.4588,-1238.6019C209.4588,-1238.6019 118.8792,-1238.6019 118.8792,-1238.6019 112.8792,-1238.6019 106.8792,-1232.6019 106.8792,-1226.6019 106.8792,-1226.6019 106.8792,-1209.3981 106.8792,-1209.3981 106.8792,-1203.3981 112.8792,-1197.3981 118.8792,-1197.3981 118.8792,-1197.3981 209.4588,-1197.3981 209.4588,-1197.3981 215.4588,-1197.3981 221.4588,-1203.3981 221.4588,-1209.3981 221.4588,-1209.3981 221.4588,-1226.6019 221.4588,-1226.6019 221.4588,-1232.6019 215.4588,-1238.6019 209.4588,-1238.6019"/>
<text text-anchor="middle" x="164.169" y="-1222.2" font-family="Helvetica,sans-Serif" font-size="14.00" fill="#000000">Download Initial</text>
<text text-anchor="middle" x="164.169" y="-1205.4" font-family="Helvetica,sans-Serif" font-size="14.00" fill="#000000">Playlist</text>
</g>
<!-- Validate&#45;&gt;DownloadRoot -->
<g id="edge2" class="edge">
<title>Validate-&gt;DownloadRoot</title>
<path fill="none" stroke="#000000" d="M91.8087,-1291.4496C104.9327,-1278.128 122.0865,-1260.716 136.3983,-1246.1888"/>
<polygon fill="#000000" stroke="#000000" points="139.0622,-1248.4719 143.587,-1238.8919 134.0756,-1243.5593 139.0622,-1248.4719"/>
</g>
<!-- DetectType -->
<g id="node5" class="node">
<title>DetectType</title>
<path fill="none" stroke="#000000" d="M203.7897,-1160.2C203.7897,-1160.2 124.5483,-1160.2 124.5483,-1160.2 118.5483,-1160.2 112.5483,-1154.2 112.5483,-1148.2 112.5483,-1148.2 112.5483,-1136.2 112.5483,-1136.2 112.5483,-1130.2 118.5483,-1124.2 124.5483,-1124.2 124.5483,-1124.2 203.7897,-1124.2 203.7897,-1124.2 209.7897,-1124.2 215.7897,-1130.2 215.7897,-1136.2 215.7897,-1136.2 215.7897,-1148.2 215.7897,-1148.2 215.7897,-1154.2 209.7897,-1160.2 203.7897,-1160.2"/>
<text text-anchor="middle" x="164.169" y="-1138" font-family="Helvetica,sans-Serif" font-size="14.00" fill="#000000">Playlist Type?</text>
</g>
<!-- DownloadRoot&#45;&gt;DetectType -->
<g id="edge4" class="edge">
<title>DownloadRoot-&gt;DetectType</title>
<path fill="none" stroke="#000000" d="M164.169,-1197.2873C164.169,-1188.9698 164.169,-1179.2512 164.169,-1170.3124"/>
<polygon fill="#000000" stroke="#000000" points="167.6691,-1170.3078 164.169,-1160.3078 160.6691,-1170.3079 167.6691,-1170.3078"/>
</g>
<!-- Master -->
<g id="node6" class="node">
<title>Master</title>
<path fill="none" stroke="#000000" d="M164.6662,-1087.0019C164.6662,-1087.0019 81.6718,-1087.0019 81.6718,-1087.0019 75.6718,-1087.0019 69.6718,-1081.0019 69.6718,-1075.0019 69.6718,-1075.0019 69.6718,-1057.7981 69.6718,-1057.7981 69.6718,-1051.7981 75.6718,-1045.7981 81.6718,-1045.7981 81.6718,-1045.7981 164.6662,-1045.7981 164.6662,-1045.7981 170.6662,-1045.7981 176.6662,-1051.7981 176.6662,-1057.7981 176.6662,-1057.7981 176.6662,-1075.0019 176.6662,-1075.0019 176.6662,-1081.0019 170.6662,-1087.0019 164.6662,-1087.0019"/>
<text text-anchor="middle" x="123.169" y="-1070.6" font-family="Helvetica,sans-Serif" font-size="14.00" fill="#000000">Master Playlist</text>
<text text-anchor="middle" x="123.169" y="-1053.8" font-family="Helvetica,sans-Serif" font-size="14.00" fill="#000000">Detected</text>
</g>
<!-- DetectType&#45;&gt;Master -->
<g id="edge5" class="edge">
<title>DetectType-&gt;Master</title>
<path fill="none" stroke="#000000" d="M154.244,-1123.8509C149.7649,-1115.5699 144.3581,-1105.5741 139.319,-1096.2579"/>
<polygon fill="#000000" stroke="#000000" points="142.2866,-1094.3874 134.4504,-1087.2568 136.1295,-1097.7178 142.2866,-1094.3874"/>
</g>
<!-- Variant -->
<g id="node7" class="node">
<title>Variant</title>
<path fill="none" stroke="#000000" d="M247.2323,-1027.4019C247.2323,-1027.4019 163.1057,-1027.4019 163.1057,-1027.4019 157.1057,-1027.4019 151.1057,-1021.4019 151.1057,-1015.4019 151.1057,-1015.4019 151.1057,-998.1981 151.1057,-998.1981 151.1057,-992.1981 157.1057,-986.1981 163.1057,-986.1981 163.1057,-986.1981 247.2323,-986.1981 247.2323,-986.1981 253.2323,-986.1981 259.2323,-992.1981 259.2323,-998.1981 259.2323,-998.1981 259.2323,-1015.4019 259.2323,-1015.4019 259.2323,-1021.4019 253.2323,-1027.4019 247.2323,-1027.4019"/>
<text text-anchor="middle" x="205.169" y="-1011" font-family="Helvetica,sans-Serif" font-size="14.00" fill="#000000">Variant Playlist</text>
<text text-anchor="middle" x="205.169" y="-994.2" font-family="Helvetica,sans-Serif" font-size="14.00" fill="#000000">Detected</text>
</g>
<!-- DetectType&#45;&gt;Variant -->
<g id="edge6" class="edge">
<title>DetectType-&gt;Variant</title>
<path fill="none" stroke="#000000" d="M171.7293,-1124.0614C175.9994,-1113.4319 181.2494,-1099.6819 185.169,-1087.2 190.2809,-1070.9211 194.9498,-1052.4653 198.4885,-1037.3455"/>
<polygon fill="#000000" stroke="#000000" points="201.9274,-1038.0078 200.7494,-1027.4786 195.1042,-1036.4442 201.9274,-1038.0078"/>
</g>
<!-- SelectVariants -->
<g id="node8" class="node">
<title>SelectVariants</title>
<path fill="none" stroke="#000000" d="M166.1229,-968C166.1229,-968 70.2151,-968 70.2151,-968 64.2151,-968 58.2151,-962 58.2151,-956 58.2151,-956 58.2151,-944 58.2151,-944 58.2151,-938 64.2151,-932 70.2151,-932 70.2151,-932 166.1229,-932 166.1229,-932 172.1229,-932 178.1229,-938 178.1229,-944 178.1229,-944 178.1229,-956 178.1229,-956 178.1229,-962 172.1229,-968 166.1229,-968"/>
<text text-anchor="middle" x="118.169" y="-945.8" font-family="Helvetica,sans-Serif" font-size="14.00" fill="#000000">Select Variant(s)</text>
</g>
<!-- Master&#45;&gt;SelectVariants -->
<g id="edge7" class="edge">
<title>Master-&gt;SelectVariants</title>
<path fill="none" stroke="#000000" d="M122.2751,-1045.59C121.4714,-1026.8797 120.2836,-999.2287 119.3921,-978.473"/>
<polygon fill="#000000" stroke="#000000" points="122.8825,-978.1721 118.9564,-968.3316 115.8889,-978.4726 122.8825,-978.1721"/>
</g>
<!-- Speed -->
<g id="node9" class="node">
<title>Speed</title>
<path fill="none" stroke="#000000" d="M230.0904,-895C230.0904,-895 94.2476,-895 94.2476,-895 88.2476,-895 82.2476,-889 82.2476,-883 82.2476,-883 82.2476,-871 82.2476,-871 82.2476,-865 88.2476,-859 94.2476,-859 94.2476,-859 230.0904,-859 230.0904,-859 236.0904,-859 242.0904,-865 242.0904,-871 242.0904,-871 242.0904,-883 242.0904,-883 242.0904,-889 236.0904,-895 230.0904,-895"/>
<text text-anchor="middle" x="162.169" y="-872.8" font-family="Helvetica,sans-Serif" font-size="14.00" fill="#000000">Select Download Mode</text>
</g>
<!-- Variant&#45;&gt;Speed -->
<g id="edge8" class="edge">
<title>Variant-&gt;Speed</title>
<path fill="none" stroke="#000000" d="M201.3108,-986.181C198.2032,-970.9875 193.34,-949.9347 187.169,-932 184.0201,-922.8483 179.8932,-913.1483 175.9024,-904.4844"/>
<polygon fill="#000000" stroke="#000000" points="178.9603,-902.7639 171.514,-895.2271 172.635,-905.7625 178.9603,-902.7639"/>
</g>
<!-- SelectVariants&#45;&gt;Speed -->
<g id="edge9" class="edge">
<title>SelectVariants-&gt;Speed</title>
<path fill="none" stroke="#000000" d="M129.0454,-931.9551C134.1753,-923.4441 140.4002,-913.1165 146.0626,-903.7219"/>
<polygon fill="#000000" stroke="#000000" points="149.1006,-905.4617 151.2652,-895.0904 143.1054,-901.8481 149.1006,-905.4617"/>
</g>
<!-- Fast -->
<g id="node10" class="node">
<title>Fast</title>
<path fill="none" stroke="#000000" d="M138.1075,-821.8019C138.1075,-821.8019 56.2305,-821.8019 56.2305,-821.8019 50.2305,-821.8019 44.2305,-815.8019 44.2305,-809.8019 44.2305,-809.8019 44.2305,-792.5981 44.2305,-792.5981 44.2305,-786.5981 50.2305,-780.5981 56.2305,-780.5981 56.2305,-780.5981 138.1075,-780.5981 138.1075,-780.5981 144.1075,-780.5981 150.1075,-786.5981 150.1075,-792.5981 150.1075,-792.5981 150.1075,-809.8019 150.1075,-809.8019 150.1075,-815.8019 144.1075,-821.8019 138.1075,-821.8019"/>
<text text-anchor="middle" x="97.169" y="-805.4" font-family="Helvetica,sans-Serif" font-size="14.00" fill="#000000">Fast Mode</text>
<text text-anchor="middle" x="97.169" y="-788.6" font-family="Helvetica,sans-Serif" font-size="14.00" fill="#000000">aria2 (parallel)</text>
</g>
<!-- Speed&#45;&gt;Fast -->
<g id="edge10" class="edge">
<title>Speed-&gt;Fast</title>
<path fill="none" stroke="#000000" d="M146.4343,-858.6509C139.0373,-850.0249 130.0447,-839.5381 121.7773,-829.897"/>
<polygon fill="#000000" stroke="#000000" points="124.2207,-827.3697 115.0542,-822.0568 118.9068,-831.9264 124.2207,-827.3697"/>
</g>
<!-- Stealth -->
<g id="node11" class="node">
<title>Stealth</title>
<path fill="none" stroke="#000000" d="M278.2433,-821.8019C278.2433,-821.8019 180.0947,-821.8019 180.0947,-821.8019 174.0947,-821.8019 168.0947,-815.8019 168.0947,-809.8019 168.0947,-809.8019 168.0947,-792.5981 168.0947,-792.5981 168.0947,-786.5981 174.0947,-780.5981 180.0947,-780.5981 180.0947,-780.5981 278.2433,-780.5981 278.2433,-780.5981 284.2433,-780.5981 290.2433,-786.5981 290.2433,-792.5981 290.2433,-792.5981 290.2433,-809.8019 290.2433,-809.8019 290.2433,-815.8019 284.2433,-821.8019 278.2433,-821.8019"/>
<text text-anchor="middle" x="229.169" y="-805.4" font-family="Helvetica,sans-Serif" font-size="14.00" fill="#000000">Stealth Mode</text>
<text text-anchor="middle" x="229.169" y="-788.6" font-family="Helvetica,sans-Serif" font-size="14.00" fill="#000000">wget (sequential)</text>
</g>
<!-- Speed&#45;&gt;Stealth -->
<g id="edge11" class="edge">
<title>Speed-&gt;Stealth</title>
<path fill="none" stroke="#000000" d="M178.3878,-858.6509C186.0887,-849.9386 195.4673,-839.3282 204.059,-829.6081"/>
<polygon fill="#000000" stroke="#000000" points="206.7332,-831.8675 210.7335,-822.0568 201.4883,-827.2315 206.7332,-831.8675"/>
</g>
<!-- DownloadVariant -->
<g id="node12" class="node">
<title>DownloadVariant</title>
<path fill="none" stroke="#000000" d="M213.6355,-743.2019C213.6355,-743.2019 110.7025,-743.2019 110.7025,-743.2019 104.7025,-743.2019 98.7025,-737.2019 98.7025,-731.2019 98.7025,-731.2019 98.7025,-713.9981 98.7025,-713.9981 98.7025,-707.9981 104.7025,-701.9981 110.7025,-701.9981 110.7025,-701.9981 213.6355,-701.9981 213.6355,-701.9981 219.6355,-701.9981 225.6355,-707.9981 225.6355,-713.9981 225.6355,-713.9981 225.6355,-731.2019 225.6355,-731.2019 225.6355,-737.2019 219.6355,-743.2019 213.6355,-743.2019"/>
<text text-anchor="middle" x="162.169" y="-726.8" font-family="Helvetica,sans-Serif" font-size="14.00" fill="#000000">Download Variant</text>
<text text-anchor="middle" x="162.169" y="-710" font-family="Helvetica,sans-Serif" font-size="14.00" fill="#000000">Playlist</text>
</g>
<!-- Fast&#45;&gt;DownloadVariant -->
<g id="edge12" class="edge">
<title>Fast-&gt;DownloadVariant</title>
<path fill="none" stroke="#000000" d="M114.247,-780.5488C121.6522,-771.5941 130.4481,-760.9578 138.4703,-751.2572"/>
<polygon fill="#000000" stroke="#000000" points="141.3037,-753.323 144.9794,-743.3862 135.9093,-748.862 141.3037,-753.323"/>
</g>
<!-- Stealth&#45;&gt;DownloadVariant -->
<g id="edge13" class="edge">
<title>Stealth-&gt;DownloadVariant</title>
<path fill="none" stroke="#000000" d="M211.5655,-780.5488C203.9324,-771.5941 194.8659,-760.9578 186.5969,-751.2572"/>
<polygon fill="#000000" stroke="#000000" points="189.0383,-748.726 179.8875,-743.3862 183.7111,-753.267 189.0383,-748.726"/>
</g>
<!-- ExtractSegments -->
<g id="node13" class="node">
<title>ExtractSegments</title>
<path fill="none" stroke="#000000" d="M205.5736,-664.6019C205.5736,-664.6019 118.7644,-664.6019 118.7644,-664.6019 112.7644,-664.6019 106.7644,-658.6019 106.7644,-652.6019 106.7644,-652.6019 106.7644,-635.3981 106.7644,-635.3981 106.7644,-629.3981 112.7644,-623.3981 118.7644,-623.3981 118.7644,-623.3981 205.5736,-623.3981 205.5736,-623.3981 211.5736,-623.3981 217.5736,-629.3981 217.5736,-635.3981 217.5736,-635.3981 217.5736,-652.6019 217.5736,-652.6019 217.5736,-658.6019 211.5736,-664.6019 205.5736,-664.6019"/>
<text text-anchor="middle" x="162.169" y="-648.2" font-family="Helvetica,sans-Serif" font-size="14.00" fill="#000000">Extract Media</text>
<text text-anchor="middle" x="162.169" y="-631.4" font-family="Helvetica,sans-Serif" font-size="14.00" fill="#000000">Segment URLs</text>
</g>
<!-- DownloadVariant&#45;&gt;ExtractSegments -->
<g id="edge14" class="edge">
<title>DownloadVariant-&gt;ExtractSegments</title>
<path fill="none" stroke="#000000" d="M162.169,-701.9488C162.169,-693.7105 162.169,-684.0489 162.169,-675.002"/>
<polygon fill="#000000" stroke="#000000" points="165.6691,-674.7862 162.169,-664.7862 158.6691,-674.7862 165.6691,-674.7862"/>
</g>
<!-- Normalize -->
<g id="node14" class="node">
<title>Normalize</title>
<path fill="none" stroke="#000000" d="M224.9657,-586.0019C224.9657,-586.0019 99.3723,-586.0019 99.3723,-586.0019 93.3723,-586.0019 87.3723,-580.0019 87.3723,-574.0019 87.3723,-574.0019 87.3723,-556.7981 87.3723,-556.7981 87.3723,-550.7981 93.3723,-544.7981 99.3723,-544.7981 99.3723,-544.7981 224.9657,-544.7981 224.9657,-544.7981 230.9657,-544.7981 236.9657,-550.7981 236.9657,-556.7981 236.9657,-556.7981 236.9657,-574.0019 236.9657,-574.0019 236.9657,-580.0019 230.9657,-586.0019 224.9657,-586.0019"/>
<text text-anchor="middle" x="162.169" y="-569.6" font-family="Helvetica,sans-Serif" font-size="14.00" fill="#000000">Normalize URLs</text>
<text text-anchor="middle" x="162.169" y="-552.8" font-family="Helvetica,sans-Serif" font-size="14.00" fill="#000000">(Relative → Absolute)</text>
</g>
<!-- ExtractSegments&#45;&gt;Normalize -->
<g id="edge15" class="edge">
<title>ExtractSegments-&gt;Normalize</title>
<path fill="none" stroke="#000000" d="M162.169,-623.3488C162.169,-615.1105 162.169,-605.4489 162.169,-596.402"/>
<polygon fill="#000000" stroke="#000000" points="165.6691,-596.1862 162.169,-586.1862 158.6691,-596.1862 165.6691,-596.1862"/>
</g>
<!-- DownloadSegments -->
<g id="node15" class="node">
<title>DownloadSegments</title>
<path fill="none" stroke="#000000" d="M210.4076,-507.4019C210.4076,-507.4019 113.9304,-507.4019 113.9304,-507.4019 107.9304,-507.4019 101.9304,-501.4019 101.9304,-495.4019 101.9304,-495.4019 101.9304,-478.1981 101.9304,-478.1981 101.9304,-472.1981 107.9304,-466.1981 113.9304,-466.1981 113.9304,-466.1981 210.4076,-466.1981 210.4076,-466.1981 216.4076,-466.1981 222.4076,-472.1981 222.4076,-478.1981 222.4076,-478.1981 222.4076,-495.4019 222.4076,-495.4019 222.4076,-501.4019 216.4076,-507.4019 210.4076,-507.4019"/>
<text text-anchor="middle" x="162.169" y="-491" font-family="Helvetica,sans-Serif" font-size="14.00" fill="#000000">Download Media</text>
<text text-anchor="middle" x="162.169" y="-474.2" font-family="Helvetica,sans-Serif" font-size="14.00" fill="#000000">Segments</text>
</g>
<!-- Normalize&#45;&gt;DownloadSegments -->
<g id="edge16" class="edge">
<title>Normalize-&gt;DownloadSegments</title>
<path fill="none" stroke="#000000" d="M162.169,-544.7488C162.169,-536.5105 162.169,-526.8489 162.169,-517.802"/>
<polygon fill="#000000" stroke="#000000" points="165.6691,-517.5862 162.169,-507.5862 158.6691,-517.5862 165.6691,-517.5862"/>
</g>
<!-- Checksums -->
<g id="node16" class="node">
<title>Checksums</title>
<path fill="none" stroke="#000000" d="M203.9644,-428.8019C203.9644,-428.8019 120.3736,-428.8019 120.3736,-428.8019 114.3736,-428.8019 108.3736,-422.8019 108.3736,-416.8019 108.3736,-416.8019 108.3736,-399.5981 108.3736,-399.5981 108.3736,-393.5981 114.3736,-387.5981 120.3736,-387.5981 120.3736,-387.5981 203.9644,-387.5981 203.9644,-387.5981 209.9644,-387.5981 215.9644,-393.5981 215.9644,-399.5981 215.9644,-399.5981 215.9644,-416.8019 215.9644,-416.8019 215.9644,-422.8019 209.9644,-428.8019 203.9644,-428.8019"/>
<text text-anchor="middle" x="162.169" y="-412.4" font-family="Helvetica,sans-Serif" font-size="14.00" fill="#000000">Generate MD5</text>
<text text-anchor="middle" x="162.169" y="-395.6" font-family="Helvetica,sans-Serif" font-size="14.00" fill="#000000">Checksums</text>
</g>
<!-- DownloadSegments&#45;&gt;Checksums -->
<g id="edge17" class="edge">
<title>DownloadSegments-&gt;Checksums</title>
<path fill="none" stroke="#000000" d="M162.169,-466.1488C162.169,-457.9105 162.169,-448.2489 162.169,-439.202"/>
<polygon fill="#000000" stroke="#000000" points="165.6691,-438.9862 162.169,-428.9862 158.6691,-438.9862 165.6691,-438.9862"/>
</g>
<!-- Concat -->
<g id="node17" class="node">
<title>Concat</title>
<path fill="none" stroke="#000000" d="M198.0357,-350.2019C198.0357,-350.2019 126.3023,-350.2019 126.3023,-350.2019 120.3023,-350.2019 114.3023,-344.2019 114.3023,-338.2019 114.3023,-338.2019 114.3023,-320.9981 114.3023,-320.9981 114.3023,-314.9981 120.3023,-308.9981 126.3023,-308.9981 126.3023,-308.9981 198.0357,-308.9981 198.0357,-308.9981 204.0357,-308.9981 210.0357,-314.9981 210.0357,-320.9981 210.0357,-320.9981 210.0357,-338.2019 210.0357,-338.2019 210.0357,-344.2019 204.0357,-350.2019 198.0357,-350.2019"/>
<text text-anchor="middle" x="162.169" y="-333.8" font-family="Helvetica,sans-Serif" font-size="14.00" fill="#000000">Concatenate</text>
<text text-anchor="middle" x="162.169" y="-317" font-family="Helvetica,sans-Serif" font-size="14.00" fill="#000000">Segments</text>
</g>
<!-- Checksums&#45;&gt;Concat -->
<g id="edge18" class="edge">
<title>Checksums-&gt;Concat</title>
<path fill="none" stroke="#000000" d="M162.169,-387.5488C162.169,-379.3105 162.169,-369.6489 162.169,-360.602"/>
<polygon fill="#000000" stroke="#000000" points="165.6691,-360.3862 162.169,-350.3862 158.6691,-360.3862 165.6691,-360.3862"/>
</g>
<!-- Reconstruct -->
<g id="node18" class="node">
<title>Reconstruct</title>
<path fill="none" stroke="#000000" d="M203.4133,-271.6019C203.4133,-271.6019 120.9247,-271.6019 120.9247,-271.6019 114.9247,-271.6019 108.9247,-265.6019 108.9247,-259.6019 108.9247,-259.6019 108.9247,-242.3981 108.9247,-242.3981 108.9247,-236.3981 114.9247,-230.3981 120.9247,-230.3981 120.9247,-230.3981 203.4133,-230.3981 203.4133,-230.3981 209.4133,-230.3981 215.4133,-236.3981 215.4133,-242.3981 215.4133,-242.3981 215.4133,-259.6019 215.4133,-259.6019 215.4133,-265.6019 209.4133,-271.6019 203.4133,-271.6019"/>
<text text-anchor="middle" x="162.169" y="-255.2" font-family="Helvetica,sans-Serif" font-size="14.00" fill="#000000">Reconstructed</text>
<text text-anchor="middle" x="162.169" y="-238.4" font-family="Helvetica,sans-Serif" font-size="14.00" fill="#000000">TS Stream</text>
</g>
<!-- Concat&#45;&gt;Reconstruct -->
<g id="edge19" class="edge">
<title>Concat-&gt;Reconstruct</title>
<path fill="none" stroke="#000000" d="M162.169,-308.9488C162.169,-300.7105 162.169,-291.0489 162.169,-282.002"/>
<polygon fill="#000000" stroke="#000000" points="165.6691,-281.7862 162.169,-271.7862 158.6691,-281.7862 165.6691,-281.7862"/>
</g>
<!-- Remux -->
<g id="node19" class="node">
<title>Remux</title>
<path fill="none" stroke="#000000" d="M204.2365,-193.0019C204.2365,-193.0019 120.1015,-193.0019 120.1015,-193.0019 114.1015,-193.0019 108.1015,-187.0019 108.1015,-181.0019 108.1015,-181.0019 108.1015,-163.7981 108.1015,-163.7981 108.1015,-157.7981 114.1015,-151.7981 120.1015,-151.7981 120.1015,-151.7981 204.2365,-151.7981 204.2365,-151.7981 210.2365,-151.7981 216.2365,-157.7981 216.2365,-163.7981 216.2365,-163.7981 216.2365,-181.0019 216.2365,-181.0019 216.2365,-187.0019 210.2365,-193.0019 204.2365,-193.0019"/>
<text text-anchor="middle" x="162.169" y="-176.6" font-family="Helvetica,sans-Serif" font-size="14.00" fill="#000000">Remux to MP4</text>
<text text-anchor="middle" x="162.169" y="-159.8" font-family="Helvetica,sans-Serif" font-size="14.00" fill="#000000">(ffmpeg)</text>
</g>
<!-- Reconstruct&#45;&gt;Remux -->
<g id="edge20" class="edge">
<title>Reconstruct-&gt;Remux</title>
<path fill="none" stroke="#000000" d="M162.169,-230.3488C162.169,-222.1105 162.169,-212.4489 162.169,-203.402"/>
<polygon fill="#000000" stroke="#000000" points="165.6691,-203.1862 162.169,-193.1862 158.6691,-203.1862 165.6691,-203.1862"/>
</g>
<!-- Metadata -->
<g id="node20" class="node">
<title>Metadata</title>
<path fill="none" stroke="#000000" d="M205.5583,-114.4019C205.5583,-114.4019 118.7797,-114.4019 118.7797,-114.4019 112.7797,-114.4019 106.7797,-108.4019 106.7797,-102.4019 106.7797,-102.4019 106.7797,-85.1981 106.7797,-85.1981 106.7797,-79.1981 112.7797,-73.1981 118.7797,-73.1981 118.7797,-73.1981 205.5583,-73.1981 205.5583,-73.1981 211.5583,-73.1981 217.5583,-79.1981 217.5583,-85.1981 217.5583,-85.1981 217.5583,-102.4019 217.5583,-102.4019 217.5583,-108.4019 211.5583,-114.4019 205.5583,-114.4019"/>
<text text-anchor="middle" x="162.169" y="-98" font-family="Helvetica,sans-Serif" font-size="14.00" fill="#000000">Display Stream</text>
<text text-anchor="middle" x="162.169" y="-81.2" font-family="Helvetica,sans-Serif" font-size="14.00" fill="#000000">Metadata</text>
</g>
<!-- Remux&#45;&gt;Metadata -->
<g id="edge21" class="edge">
<title>Remux-&gt;Metadata</title>
<path fill="none" stroke="#000000" d="M162.169,-151.7488C162.169,-143.5105 162.169,-133.8489 162.169,-124.802"/>
<polygon fill="#000000" stroke="#000000" points="165.6691,-124.5862 162.169,-114.5862 158.6691,-124.5862 165.6691,-124.5862"/>
</g>
<!-- End -->
<g id="node21" class="node">
<title>End</title>
<path fill="none" stroke="#000000" d="M212.5806,-36C212.5806,-36 111.7574,-36 111.7574,-36 105.7574,-36 99.7574,-30 99.7574,-24 99.7574,-24 99.7574,-12 99.7574,-12 99.7574,-6 105.7574,0 111.7574,0 111.7574,0 212.5806,0 212.5806,0 218.5806,0 224.5806,-6 224.5806,-12 224.5806,-12 224.5806,-24 224.5806,-24 224.5806,-30 218.5806,-36 212.5806,-36"/>
<text text-anchor="middle" x="162.169" y="-13.8" font-family="Helvetica,sans-Serif" font-size="14.00" fill="#000000">Final MP4 Output</text>
</g>
<!-- Metadata&#45;&gt;End -->
<g id="edge22" class="edge">
<title>Metadata-&gt;End</title>
<path fill="none" stroke="#000000" d="M162.169,-73.0873C162.169,-64.7698 162.169,-55.0512 162.169,-46.1124"/>
<polygon fill="#000000" stroke="#000000" points="165.6691,-46.1078 162.169,-36.1078 158.6691,-46.1079 165.6691,-46.1078"/>
</g>
</g>
</svg>